# Blender v2.82 (sub 7) OBJ File: 'MedicIcon.blend'
# www.blender.org
mtllib MedicIcon.mtl
o Box
v -0.738136 4.976291 0.759120
v -0.719758 5.076277 0.657457
v -0.839793 4.978304 0.659073
v -0.839793 0.097972 0.659073
v -0.719758 0.000000 0.657457
v -0.738136 0.099986 0.759120
v 0.664695 4.976291 0.759120
v 0.766352 4.978304 0.659074
v 0.646317 5.076277 0.657458
v 0.646317 0.000000 0.657458
v 0.766352 0.097972 0.659074
v 0.664695 0.099986 0.759120
v -0.738136 4.976291 -0.820321
v -0.839793 4.978304 -0.720274
v -0.719758 5.076277 -0.718658
v -0.719758 0.000000 -0.718658
v -0.839793 0.097972 -0.720274
v -0.738136 0.099986 -0.820321
v 0.766352 4.978304 -0.720274
v 0.664695 4.976291 -0.820320
v 0.646317 5.076277 -0.718658
v 0.646317 0.000000 -0.718658
v 0.664695 0.099986 -0.820320
v 0.766352 0.097972 -0.720274
v -1.067810 3.364162 0.785927
v -1.170291 3.362148 0.685947
v -1.190326 3.164176 0.687590
v -1.170892 3.159793 0.885683
v -1.068593 3.259806 0.887494
v -1.067810 1.712115 0.785927
v -1.068593 1.816471 0.887494
v -1.170892 1.916484 0.885683
v -1.190326 1.912101 0.687590
v -1.170291 1.714128 0.685948
v 0.994369 3.364162 0.785927
v 0.995152 3.259806 0.887495
v 1.097450 3.159793 0.885683
v 1.116885 3.164176 0.687590
v 1.096850 3.362148 0.685948
v 0.994369 1.712115 0.785927
v 1.096850 1.714128 0.685948
v 1.116885 1.912101 0.687590
v 1.097451 1.916484 0.885683
v 0.995152 1.816471 0.887495
v 1.096850 3.362148 -0.747148
v 1.116885 3.164176 -0.748790
v 1.097451 3.159793 -0.946884
v 0.995152 3.259806 -0.948695
v 0.994369 3.364162 -0.847128
v 1.096850 1.714128 -0.747148
v 0.994369 1.712115 -0.847128
v 0.995152 1.816471 -0.948695
v 1.097451 1.916484 -0.946884
v 1.116885 1.912101 -0.748790
v -1.067810 3.364162 -0.847128
v -1.068593 3.259806 -0.948695
v -1.170891 3.159793 -0.946884
v -1.190325 3.164176 -0.748790
v -1.170290 3.362148 -0.747148
v -1.067810 1.712115 -0.847128
v -1.170291 1.714128 -0.747148
v -1.190325 1.912101 -0.748790
v -1.170891 1.916484 -0.946884
v -1.068593 1.816471 -0.948695
v -0.832726 3.085135 2.592568
v -0.713291 3.080936 2.690661
v -0.731144 3.185306 2.590756
v -0.832726 1.991142 2.592568
v -0.731144 1.890971 2.590756
v -0.713291 1.995340 2.690661
v 0.759285 3.085135 2.592568
v 0.657703 3.185306 2.590757
v 0.639850 3.080936 2.690662
v 0.759285 1.991142 2.592568
v 0.639850 1.995340 2.690662
v 0.657703 1.890971 2.590757
v 0.759285 3.085135 -2.653768
v 0.639851 3.080936 -2.751861
v 0.657704 3.185306 -2.651957
v 0.759285 1.991142 -2.653768
v 0.657704 1.890971 -2.651957
v 0.639851 1.995340 -2.751861
v -0.832725 3.085135 -2.653769
v -0.731144 3.185306 -2.651958
v -0.713291 3.080936 -2.751862
v -0.832725 1.991142 -2.653769
v -0.713291 1.995340 -2.751862
v -0.731144 1.890971 -2.651958
vt 0.063447 0.063854
vt 0.936553 0.063854
vt 0.936553 0.936146
vt 0.063447 0.936146
vt 0.018392 0.059424
vt 0.314941 0.046989
vt 0.314941 0.953011
vt 0.018392 0.940576
vt 0.356741 1.000000
vt 0.643259 1.000000
vt 0.641237 1.000000
vt 0.358763 1.000000
vt 0.685059 0.046989
vt 0.981608 0.059424
vt 0.981608 0.940576
vt 0.685059 0.953011
vt 0.018022 0.063023
vt 0.315311 0.061524
vt 0.315311 0.938476
vt 0.018022 0.936977
vt 0.018022 0.063023
vt 0.315311 0.061524
vt 0.315311 0.938476
vt 0.018022 0.936977
vt 0.684689 0.061524
vt 0.981978 0.063023
vt 0.981978 0.936977
vt 0.684689 0.938476
vt 0.333333 0.953071
vt 0.333333 0.046929
vt 0.333333 0.059917
vt 0.333333 0.940083
vt 0.685059 0.046989
vt 0.981608 0.059424
vt 0.981608 0.940576
vt 0.685059 0.953011
vt 0.666667 0.046929
vt 0.666667 0.953071
vt 0.666667 0.940083
vt 0.666667 0.059917
vt 0.684689 0.061524
vt 0.981978 0.063023
vt 0.981978 0.936977
vt 0.684689 0.938476
vt 0.356741 1.000000
vt 0.643259 1.000000
vt 0.641237 1.000000
vt 0.358763 1.000000
vt 0.063447 0.063854
vt 0.936553 0.063854
vt 0.936553 0.936146
vt 0.063447 0.936146
vt 0.356289 0.061111
vt 0.643711 0.061110
vt 0.643711 0.938890
vt 0.356289 0.938890
vt 0.359262 0.064386
vt 0.640738 0.064386
vt 0.640738 0.935614
vt 0.359262 0.935614
vt 0.643259 0.000000
vt 0.356741 0.000000
vt 0.358763 0.000000
vt 0.641237 0.000000
vt 0.643259 0.000000
vt 0.356741 0.000000
vt 0.358763 0.000000
vt 0.641237 0.000000
vt 0.359262 0.064386
vt 0.640738 0.064386
vt 0.640738 0.935614
vt 0.359262 0.935614
vt 0.333333 0.953071
vt 0.333333 0.046929
vt 0.333333 0.059917
vt 0.333333 0.940083
vt 0.666667 0.046929
vt 0.666667 0.953071
vt 0.666667 0.940083
vt 0.666667 0.059917
vt 0.356289 0.061111
vt 0.643711 0.061110
vt 0.643711 0.938890
vt 0.356289 0.938890
vt 0.018392 0.059424
vt 0.000000 0.063854
vt 0.017728 0.000000
vt 1.000000 0.936553
vt 0.985292 1.000000
vt 0.018392 0.940576
vt 0.017728 1.000000
vt 0.000000 0.936146
vt 0.937578 0.000000
vt 1.000000 0.052119
vt 0.017728 1.000000
vt 0.000000 0.936146
vt 0.062422 1.000000
vt 0.000000 0.947881
vt 0.014708 1.000000
vt 0.000000 0.936553
vt 0.000000 0.052119
vt 0.062422 0.000000
vt 0.314941 0.046989
vt 0.315018 0.000000
vt 0.333333 0.000000
vt 0.333333 0.008423
vt 0.333333 0.052762
vt 0.666667 0.052762
vt 0.666667 0.008423
vt 0.666667 0.000000
vt 0.684982 0.000000
vt 0.314941 0.953011
vt 0.333333 0.947238
vt 0.333333 0.991577
vt 0.333333 1.000000
vt 0.315018 1.000000
vt 0.684982 1.000000
vt 0.666667 1.000000
vt 0.666667 0.991577
vt 0.666667 0.947238
vt 0.333333 0.938890
vt 0.333333 1.000000
vt 0.330004 1.000000
vt 0.311257 1.000000
vt 0.688743 1.000000
vt 0.669996 1.000000
vt 0.666667 1.000000
vt 0.666667 0.938890
vt 0.333333 0.947238
vt 0.333333 0.991577
vt 0.333333 1.000000
vt 0.315018 1.000000
vt 0.684982 1.000000
vt 0.666667 1.000000
vt 0.666667 0.991577
vt 0.666667 0.947238
vt 0.359262 1.000000
vt 0.333333 1.000000
vt 0.666667 1.000000
vt 0.640738 1.000000
vt 0.333333 0.000000
vt 0.359262 0.000000
vt 0.640738 0.000000
vt 0.666667 0.000000
vt 0.359262 1.000000
vt 0.333333 1.000000
vt 0.666667 1.000000
vt 0.640738 1.000000
vt 0.333333 0.000000
vt 0.359262 0.000000
vt 0.640738 0.000000
vt 0.666667 0.000000
vt 0.688743 1.000000
vt 1.000000 0.947881
vt 0.982272 1.000000
vt 0.000000 0.063447
vt 0.985292 1.000000
vt 1.000000 0.052119
vt 1.000000 0.947881
vt 1.000000 0.063854
vt 1.000000 0.936146
vt 0.982272 1.000000
vt 0.937578 1.000000
vt 0.062422 1.000000
vt 1.000000 0.063447
vt 0.311257 1.000000
vt 0.014708 1.000000
vt 0.641827 1.000000
vt 0.358173 1.000000
vt 0.641827 1.000000
vt 0.358173 1.000000
vt 0.666667 0.000000
vt 0.666667 0.000000
vt 0.333333 0.000000
vt 0.333333 0.000000
vt 0.333333 1.000000
vt 0.333333 0.000000
vt 0.666667 0.000000
vt 0.666667 0.000000
vt 0.666667 1.000000
vt 0.333333 0.000000
vn 0.0000 -1.0000 0.0000
vn 0.0000 0.0166 -0.9999
vn -0.9894 0.0000 0.1452
vn -0.9809 0.0000 0.1943
vn -0.0000 -0.0166 0.9999
vn -0.9797 0.2003 -0.0000
vn -0.9886 0.1503 -0.0000
vn 0.9797 0.2003 0.0000
vn 0.9886 0.1503 0.0000
vn -0.9886 -0.1503 -0.0000
vn -0.9797 -0.2003 -0.0000
vn -0.0000 0.9990 0.0437
vn 0.0000 -0.0166 -0.9999
vn 0.0000 -0.9990 -0.0437
vn 0.9886 -0.1503 0.0000
vn 0.9797 -0.2003 0.0000
vn 0.9894 0.0000 -0.1452
vn 0.9809 0.0000 -0.1943
vn 0.0000 1.0000 -0.0000
vn -0.9989 0.0337 -0.0324
vn -0.9989 -0.0337 -0.0324
vn -0.9989 -0.0337 0.0324
vn -0.9989 0.0337 0.0324
vn 0.0000 0.0000 -1.0000
vn 0.9894 0.0000 0.1452
vn 0.9809 0.0000 0.1943
vn -0.9894 0.0000 -0.1452
vn -0.9809 0.0000 -0.1943
vn -0.0000 0.0000 1.0000
vn 0.0000 0.9990 -0.0437
vn -0.0000 -0.9990 0.0437
vn 0.9989 0.0337 0.0324
vn 0.9989 -0.0337 0.0324
vn 0.9989 -0.0337 -0.0324
vn 0.9989 0.0337 -0.0324
vn -0.5251 0.6523 0.5466
vn -0.5251 -0.6523 0.5466
vn 0.5251 0.6523 0.5466
vn 0.5251 -0.6523 0.5466
vn -0.5251 0.6523 -0.5466
vn -0.5251 -0.6523 -0.5466
vn 0.5251 0.6523 -0.5466
vn 0.5251 -0.6523 -0.5466
vn -0.7760 0.2975 0.5561
vn -0.7749 0.2952 0.5589
vn -0.8165 0.4062 0.4103
vn -0.7733 0.5572 0.3026
vn -0.7760 0.5504 0.3080
vn -0.7760 -0.2975 0.5561
vn -0.7760 -0.5504 0.3080
vn -0.7733 -0.5572 0.3026
vn -0.8165 -0.4062 0.4103
vn -0.7749 -0.2952 0.5589
vn 0.7760 0.2975 0.5561
vn 0.7760 0.5504 0.3080
vn 0.7733 0.5572 0.3026
vn 0.8165 0.4062 0.4103
vn 0.7749 0.2952 0.5589
vn 0.7760 -0.2975 0.5561
vn 0.7749 -0.2952 0.5589
vn 0.8165 -0.4062 0.4103
vn 0.7733 -0.5572 0.3026
vn 0.7760 -0.5504 0.3080
vn 0.7749 0.2952 -0.5589
vn 0.8165 0.4062 -0.4103
vn 0.7733 0.5572 -0.3026
vn 0.7760 0.5504 -0.3080
vn 0.7760 0.2975 -0.5561
vn 0.7749 -0.2952 -0.5589
vn 0.7760 -0.2975 -0.5561
vn 0.7760 -0.5504 -0.3080
vn 0.7733 -0.5572 -0.3026
vn 0.8165 -0.4062 -0.4103
vn -0.7760 0.2975 -0.5561
vn -0.7760 0.5504 -0.3080
vn -0.7733 0.5572 -0.3026
vn -0.8165 0.4062 -0.4103
vn -0.7749 0.2952 -0.5589
vn -0.7760 -0.2975 -0.5561
vn -0.7749 -0.2952 -0.5589
vn -0.8165 -0.4062 -0.4103
vn -0.7733 -0.5572 -0.3026
vn -0.7760 -0.5504 -0.3080
vn -0.5222 0.5414 0.6589
vn -0.5222 -0.5414 0.6589
vn 0.5222 0.5414 0.6589
vn 0.5222 -0.5414 0.6589
vn 0.5222 0.5414 -0.6589
vn 0.5222 -0.5414 -0.6589
vn -0.5222 0.5414 -0.6589
vn -0.5222 -0.5414 -0.6589
vn -0.0000 0.7130 0.7012
vn -0.6916 -0.1532 0.7058
vn -0.0000 -0.7130 0.7012
vn 0.6916 -0.1532 0.7058
vn 0.6323 0.7747 0.0000
vn 0.6323 -0.7747 0.0000
vn 0.6916 -0.1532 -0.7058
vn 0.0000 0.7130 -0.7012
vn 0.0000 -0.7130 -0.7012
vn -0.6916 -0.1532 -0.7058
vn -0.6323 0.7747 -0.0000
vn -0.6323 -0.7747 -0.0000
vn -0.6916 0.1532 0.7058
vn 0.6916 0.1532 0.7058
vn 0.6916 0.1532 -0.7058
vn -0.6916 0.1532 -0.7058
vn 0.0000 0.6975 -0.7166
vn 0.0000 -0.6975 -0.7166
vn -0.0000 0.6975 0.7166
vn -0.0000 -0.6975 0.7166
vn -0.6347 0.0000 0.7728
vn 0.6347 0.0000 0.7728
vn 0.6347 0.0000 -0.7728
vn -0.6347 0.0000 -0.7728
vn 0.0000 0.6915 -0.7224
vn 0.0000 -0.6915 -0.7224
vn -0.0000 0.6915 0.7224
vn -0.0000 -0.6915 0.7224
vn -0.6907 -0.7035 0.1676
vn -0.6907 0.7035 0.1676
vn 0.6907 0.7035 -0.1676
vn -0.6907 0.7035 -0.1676
vn 0.6907 -0.7035 0.1676
vn -0.6907 -0.7035 -0.1676
vn 0.6907 -0.7035 -0.1676
vn 0.6907 0.7035 0.1676
vn -0.0000 0.0166 0.9999
usemtl None
s 1
f 22/1/1 10/2/1 5/3/1 16/4/1
f 20/5/2 49/6/2 55/7/2 13/8/2
f 28/9/3 32/10/3 68/11/4 65/12/4
f 30/13/5 6/14/5 12/15/5 40/16/5
f 14/17/6 59/18/7 26/19/7 3/20/6
f 8/21/8 39/22/9 45/23/9 19/24/8
f 61/25/10 17/26/11 4/27/11 34/28/10
f 36/29/12 29/30/12 67/31/12 72/32/12
f 51/33/13 23/34/13 18/35/13 60/36/13
f 52/37/14 64/38/14 88/39/14 81/40/14
f 41/41/15 11/42/16 24/43/16 50/44/15
f 47/45/17 53/46/17 80/47/18 77/48/18
f 9/49/19 21/50/19 15/51/19 2/52/19
f 58/53/20 62/54/21 33/55/22 27/56/23
f 78/57/24 82/58/24 87/59/24 85/60/24
f 43/61/25 37/62/25 71/63/26 74/64/26
f 63/65/27 57/66/27 83/67/28 86/68/28
f 66/69/29 70/70/29 75/71/29 73/72/29
f 56/73/30 48/74/30 79/75/30 84/76/30
f 31/77/31 44/78/31 76/79/31 69/80/31
f 38/81/32 42/82/33 54/83/34 46/84/35
f 1/85/36 2/86/36 3/87/36
f 4/27/37 5/88/37 6/89/37
f 7/90/38 8/91/38 9/92/38
f 10/2/39 11/93/39 12/94/39
f 13/8/40 14/95/40 15/96/40
f 16/4/41 17/97/41 18/98/41
f 19/24/42 20/99/42 21/100/42
f 22/1/43 23/101/43 24/102/43
f 25/103/44 26/104/45 27/105/46 28/106/47 29/107/48
f 30/13/49 31/108/50 32/109/51 33/110/52 34/111/53
f 35/112/54 36/113/55 37/114/56 38/115/57 39/116/58
f 40/16/59 41/117/60 42/118/61 43/119/62 44/120/63
f 45/23/64 46/121/65 47/122/66 48/123/67 49/124/68
f 50/44/69 51/125/70 52/126/71 53/127/72 54/128/73
f 55/7/74 56/129/75 57/130/76 58/131/77 59/132/78
f 60/36/79 61/133/80 62/134/81 63/135/82 64/136/83
f 65/12/84 66/137/84 67/138/84
f 68/11/85 69/139/85 70/140/85
f 71/63/86 72/141/86 73/142/86
f 74/64/87 75/143/87 76/144/87
f 77/48/88 78/145/88 79/146/88
f 80/47/89 81/147/89 82/148/89
f 83/67/90 84/149/90 85/150/90
f 86/68/91 87/151/91 88/152/91
f 1/85/92 7/90/92 9/92/92 2/86/92
f 34/28/53 4/27/93 6/89/93 30/153/49
f 5/3/94 10/2/94 12/94/94 6/154/94
f 40/16/59 12/15/95 11/155/95 41/117/60
f 8/21/96 19/24/96 21/100/96 9/156/96
f 10/2/97 22/1/97 24/102/97 11/93/97
f 50/44/69 24/43/98 23/157/98 51/125/70
f 15/51/99 21/50/99 20/158/99 13/159/99
f 18/35/100 23/34/100 22/160/100 16/161/100
f 60/36/79 18/35/101 17/162/101 61/133/80
f 2/52/102 15/51/102 14/163/102 3/164/102
f 4/27/103 17/26/103 16/165/103 5/88/103
f 3/20/104 26/19/45 25/166/44 1/167/104
f 27/56/23 33/55/22 32/10/3 28/9/3
f 7/90/105 35/112/54 39/116/58 8/91/105
f 37/62/25 43/61/25 42/82/33 38/81/32
f 19/24/106 45/23/64 49/124/68 20/99/106
f 46/84/35 54/83/34 53/46/17 47/45/17
f 13/8/107 55/7/74 59/132/78 14/95/107
f 57/66/27 63/65/27 62/54/21 58/53/20
f 58/53/20 27/56/23 26/19/7 59/18/7
f 61/25/10 34/28/10 33/55/22 62/54/21
f 48/74/108 56/73/108 55/7/108 49/6/108
f 51/33/109 60/36/109 64/38/109 52/37/109
f 38/81/32 46/84/35 45/23/9 39/22/9
f 41/41/15 50/44/15 54/83/34 42/82/33
f 29/30/110 36/29/110 35/112/110 25/103/110
f 30/13/111 40/16/111 44/78/111 31/77/111
f 65/12/112 68/11/112 70/140/112 66/137/112
f 73/72/113 75/71/113 74/168/113 71/169/113
f 77/48/114 80/47/114 82/148/114 78/145/114
f 85/60/115 87/59/115 86/170/115 83/171/115
f 78/57/116 85/60/116 84/76/116 79/75/116
f 81/40/117 88/39/117 87/59/117 82/58/117
f 66/69/118 73/72/118 72/32/118 67/31/118
f 69/80/119 76/79/119 75/71/119 70/70/119
f 31/77/50 69/80/120 68/172/120 32/173/51
f 67/31/121 29/30/48 28/174/47 65/175/121
f 47/45/66 77/48/122 79/146/122 48/176/67
f 83/67/123 57/66/76 56/177/75 84/149/123
f 43/61/62 74/64/124 76/144/124 44/178/63
f 63/65/82 86/68/125 88/152/125 64/179/83
f 80/47/126 53/46/72 52/180/71 81/147/126
f 71/63/127 37/62/56 36/181/55 72/141/127
f 1/85/128 25/103/128 35/112/128 7/90/128
