# Blender v2.82 (sub 7) OBJ File: 'asyncBoulder.blend'
# www.blender.org
mtllib asyncBoulder.mtl
o Cube
v -0.621717 -1.864665 0.561230
v -0.548748 0.096292 0.233219
v -0.621717 -1.864665 -0.203317
v -0.594769 0.061485 -0.334357
v 0.142830 -1.864665 0.561230
v 0.395524 -0.125933 0.512337
v 0.142830 -1.864665 -0.203317
v 0.472040 -0.017617 -0.415544
v -1.179902 -0.481376 0.799486
v -0.621486 -0.470740 -0.482564
v 1.101429 -0.434130 -0.542622
v 0.776482 -0.574090 0.876028
v -1.112251 -0.154042 0.673994
v -0.730914 -0.134257 -0.509986
v 0.925377 -0.160138 -0.558607
v 0.686656 -0.341330 0.804239
v -0.673822 -0.807936 -0.485134
v 0.953389 -0.822070 -0.491871
v 0.757593 -0.941217 0.939109
v -1.082828 -0.852680 0.783704
v -0.821859 -1.571378 -0.448302
v 0.489272 -1.577957 -0.446664
v 0.455846 -1.602622 0.829070
v -0.898270 -1.583033 0.791381
v -0.693405 -1.875605 0.178956
v -1.002464 -0.012099 0.539729
v -0.863291 0.079775 -0.043829
v -0.767152 -1.790487 -0.354358
v -0.239443 -1.875605 -0.275006
v -0.108171 0.040467 -0.522789
v 0.306553 -1.791309 -0.354154
v 0.214519 -1.875605 0.178956
v 0.546702 -0.074785 0.051138
v 0.302375 -1.794392 0.715128
v -0.239443 -1.875605 0.632918
v -0.208418 -0.035477 0.530098
v -1.148075 -0.627698 0.794049
v -0.662188 -0.308500 -0.491546
v 1.046058 -0.292237 -0.554252
v 0.738789 -0.453487 0.843185
v -0.284525 -0.541852 1.090948
v 1.283890 -0.509370 0.168248
v 0.322787 -0.438316 -0.765784
v -1.245628 -0.470798 0.156916
v -1.166489 -0.322699 0.761297
v -0.777144 0.000041 -0.515307
v 0.735355 -0.061928 -0.538216
v 0.590049 -0.231028 0.711992
v -0.270928 -0.266528 0.977881
v 1.129941 -0.270719 0.130469
v 0.155362 -0.128356 -0.773061
v -1.245507 -0.124165 0.074352
v -0.622662 -0.598780 -0.482071
v 1.077430 -0.583357 -0.516634
v 0.797425 -0.717344 0.918302
v -0.997875 -1.219053 0.797353
v -1.203416 -0.820682 0.135347
v 0.196484 -0.799638 -0.741611
v 1.180582 -0.891269 0.237557
v -0.219318 -0.912313 1.114515
v -0.765272 -1.185777 -0.482089
v 0.728655 -1.203171 -0.479040
v 0.624792 -1.276642 0.906290
v -0.776704 -1.791944 0.710416
v -0.231510 -1.596233 1.046046
v 0.722426 -1.592743 0.194890
v -0.155996 -1.571262 -0.683304
v -1.109931 -1.574752 0.167852
v -1.180777 0.022039 -0.003131
v 0.011467 -0.012954 -0.743147
v 0.952201 -0.172083 0.100693
v -0.240043 -0.137090 0.840709
v -0.239443 -1.898562 0.178956
v -0.250833 -0.687793 1.110337
v 1.279201 -0.657309 0.209243
v 0.302892 -0.575796 -0.753514
v -1.227142 -0.606281 0.147580
v -0.289935 -0.404541 1.050705
v 1.231192 -0.383599 0.146265
v 0.268020 -0.283920 -0.771363
v -1.253107 -0.304863 0.133077
v -1.173754 -1.195385 0.147133
v 0.013235 -1.184466 -0.730387
v 0.968904 -1.246936 0.224123
v -0.218085 -1.257855 1.101644
v -0.238452 -1.794672 0.910773
v 0.504221 -1.794236 0.180948
v -0.229012 -1.791551 -0.552257
v -0.971685 -1.791987 0.177568
vt 0.443940 0.662274
vt 0.489493 0.663597
vt 0.510492 0.794166
vt 0.473537 0.781216
vt 0.953562 0.913384
vt 0.856584 0.835156
vt 0.927245 0.778533
vt 0.999860 0.789262
vt 0.870126 0.714207
vt 0.910565 0.671010
vt 0.525327 0.946393
vt 0.493519 0.956310
vt 0.906411 0.639623
vt 0.751850 0.639329
vt 0.728672 0.614726
vt 0.771100 0.680020
vt 0.656266 0.676960
vt 0.605925 0.635324
vt 0.568548 0.609630
vt 0.476012 0.005921
vt 0.525326 0.013316
vt 0.460992 0.158340
vt 0.419320 0.151644
vt 0.619117 0.772192
vt 0.525606 0.767766
vt 0.635889 0.877862
vt 0.582491 0.919511
vt 0.433171 0.308449
vt 0.400413 0.302193
vt 0.459956 0.485372
vt 0.421093 0.491397
vt 0.772355 0.895687
vt 0.769645 0.971021
vt 0.912706 0.243780
vt 0.835640 0.246037
vt 0.844674 0.156223
vt 0.937886 0.167562
vt 0.760355 0.228464
vt 0.750940 0.148507
vt 0.772431 0.069445
vt 0.854297 0.062396
vt 0.932849 0.086008
vt 0.287304 0.303023
vt 0.326122 0.296565
vt 0.335123 0.488293
vt 0.292489 0.483347
vt 0.352942 0.295808
vt 0.362715 0.493917
vt 0.380632 0.659298
vt 0.354310 0.659292
vt 0.312015 0.656490
vt 0.296175 0.000140
vt 0.363123 0.005004
vt 0.341615 0.153699
vt 0.298076 0.161770
vt 0.398810 0.004516
vt 0.367385 0.148459
vt 0.912959 0.498699
vt 0.898909 0.540846
vt 0.706481 0.526148
vt 0.730225 0.483373
vt 0.895937 0.566663
vt 0.700961 0.553147
vt 0.533120 0.549850
vt 0.537796 0.517165
vt 0.565026 0.465143
vt 0.369548 0.782417
vt 0.324248 0.788250
vt 0.397534 0.777309
vt 0.411311 0.976516
vt 0.381914 0.978019
vt 0.331668 0.973010
vt 0.376706 0.298173
vt 0.390310 0.494811
vt 0.408702 0.660097
vt 0.434143 0.004508
vt 0.391512 0.148174
vt 0.899283 0.600693
vt 0.709743 0.583809
vt 0.544234 0.580636
vt 0.433127 0.776504
vt 0.449515 0.968734
vt 0.163688 0.636038
vt 0.240189 0.647519
vt 0.244189 0.786203
vt 0.160769 0.776785
vt 0.237128 0.959789
vt 0.140208 0.938343
vt 0.948717 0.335242
vt 0.936432 0.419554
vt 0.772106 0.412019
vt 0.810651 0.343081
vt 0.618589 0.384823
vt 0.678888 0.308542
vt 0.067498 0.035780
vt 0.181726 0.007311
vt 0.219869 0.170998
vt 0.130226 0.188025
vt 0.225027 0.318294
vt 0.153695 0.337160
vt 0.225370 0.483957
vt 0.154672 0.488058
vt 0.739629 0.031506
vt 0.860548 0.000140
vt 0.093362 0.350679
vt 0.102459 0.492003
vt 0.106462 0.630563
vt 0.971723 0.056375
vt 0.722834 0.261791
vt 0.686170 0.143523
vt 0.000140 0.072317
vt 0.059582 0.207647
vt 0.939147 0.283094
vt 0.828554 0.298096
vt 0.999860 0.176118
vt 0.099768 0.770464
vt 0.081415 0.914016
vn -0.6207 0.5629 0.5458
vn -0.3475 0.8564 0.3817
vn -0.7170 0.6455 -0.2630
vn -0.9556 0.1869 -0.2276
vn 0.0357 0.9900 0.1367
vn -0.1242 0.9910 -0.0487
vn -0.0594 0.9851 -0.1615
vn -0.4960 0.5030 -0.7078
vn -0.5279 -0.1894 -0.8279
vn -0.0801 0.6128 -0.7862
vn 0.0103 0.1850 -0.9827
vn 0.0440 0.9931 -0.1087
vn 0.1318 0.9913 0.0031
vn 0.3060 0.8785 -0.3668
vn 0.5136 0.6473 -0.5632
vn 0.3836 0.9082 0.1674
vn 0.6408 0.7424 0.1953
vn 0.1585 0.9778 0.1369
vn 0.1793 0.9583 0.2223
vn 0.2763 0.8483 0.4517
vn 0.3991 0.6323 0.6640
vn 0.0533 0.8361 0.5459
vn -0.0036 0.5938 0.8046
vn 0.1305 0.9606 0.2453
vn -0.1603 -0.9738 -0.1609
vn -0.0020 -0.9807 -0.1952
vn 0.0000 -1.0000 0.0000
vn -0.1945 -0.9809 -0.0016
vn 0.1499 -0.9761 -0.1570
vn 0.1829 -0.9831 -0.0010
vn 0.1477 -0.9773 0.1517
vn -0.0019 -0.9820 0.1888
vn -0.1567 -0.9753 0.1555
vn 0.5658 -0.1931 0.8015
vn 0.5689 0.0632 0.8200
vn -0.0716 0.0524 0.9960
vn -0.0757 -0.0431 0.9962
vn 0.5256 0.2973 0.7971
vn -0.0720 0.1837 0.9803
vn -0.7721 0.0303 0.6347
vn -0.7710 -0.1440 0.6203
vn -0.7606 -0.1385 0.6342
vn 0.6361 -0.3750 -0.6743
vn 0.7007 -0.2707 -0.6601
vn 0.9750 -0.1447 0.1684
vn 0.9066 -0.4059 0.1151
vn 0.7490 0.0476 -0.6609
vn 0.9692 0.1901 0.1565
vn -0.5496 0.0781 -0.8318
vn -0.5113 0.0292 -0.8589
vn 0.0289 -0.1047 -0.9940
vn 0.0096 -0.0632 -0.9979
vn -0.5035 -0.0894 -0.8594
vn 0.0395 -0.0663 -0.9970
vn -0.9448 -0.0946 -0.3137
vn -0.9619 -0.0579 -0.2671
vn -0.9527 -0.0905 -0.2900
vn 0.4786 0.4361 0.7621
vn -0.0436 0.3711 0.9275
vn -0.7314 0.2954 0.6146
vn 0.6687 0.3894 -0.6334
vn 0.8407 0.5087 0.1853
vn -0.5074 -0.2009 -0.8380
vn 0.0196 0.0063 -0.9998
vn -0.9637 -0.0199 -0.2662
vn -0.6694 -0.3582 0.6509
vn -0.7358 -0.1402 0.6625
vn -0.9822 -0.0895 -0.1652
vn -0.9449 -0.3183 -0.0759
vn -0.6066 0.0236 -0.7946
vn -0.6453 -0.2413 -0.7248
vn 0.0049 -0.0974 -0.9952
vn -0.0214 -0.3167 -0.9482
vn 0.6161 -0.4025 -0.6770
vn 0.5593 -0.5339 -0.6341
vn 0.8514 -0.5222 0.0481
vn 0.7712 -0.6364 0.0104
vn 0.5589 -0.3595 0.7472
vn 0.5285 -0.5451 0.6508
vn -0.0688 -0.1381 0.9880
vn -0.0463 -0.3826 0.9227
vn 0.3757 -0.8215 0.4289
vn -0.0217 -0.7743 0.6324
vn -0.4539 -0.7624 0.4611
vn 0.3853 -0.8087 -0.4444
vn 0.5397 -0.8419 -0.0035
vn -0.4855 -0.7211 -0.4941
vn -0.0359 -0.7419 -0.6695
vn -0.6654 -0.7461 -0.0225
usemtl Material
s 1
f 13/1/1 26/2/2 69/3/3 52/4/4
f 26/5/2 2/6/5 27/7/6 69/8/3
f 69/8/3 27/7/6 4/9/7 46/10/8
f 52/4/4 69/3/3 46/11/8 14/12/9
f 14/13/9 46/10/8 70/14/10 51/15/11
f 46/10/8 4/9/7 30/16/12 70/14/10
f 70/14/10 30/16/12 8/17/13 47/18/14
f 51/15/11 70/14/10 47/18/14 15/19/15
f 15/20/15 47/21/14 71/22/16 50/23/17
f 47/18/14 8/17/13 33/24/18 71/25/16
f 71/25/16 33/24/18 6/26/19 48/27/20
f 50/23/17 71/22/16 48/28/20 16/29/21
f 16/29/21 48/28/20 72/30/22 49/31/23
f 48/27/20 6/26/19 36/32/24 72/33/22
f 72/33/22 36/32/24 2/6/5 26/5/2
f 49/31/23 72/30/22 26/2/2 13/1/1
f 3/34/25 29/35/26 73/36/27 25/37/28
f 29/35/26 7/38/29 32/39/30 73/36/27
f 73/36/27 32/39/30 5/40/31 35/41/32
f 25/37/28 73/36/27 35/41/32 1/42/33
f 19/43/34 55/44/35 74/45/36 60/46/37
f 55/44/35 12/47/38 41/48/39 74/45/36
f 74/45/36 41/48/39 9/49/40 37/50/41
f 60/46/37 74/45/36 37/50/41 20/51/42
f 18/52/43 54/53/44 75/54/45 59/55/46
f 54/53/44 11/56/47 42/57/48 75/54/45
f 75/54/45 42/57/48 12/47/38 55/44/35
f 59/55/46 75/54/45 55/44/35 19/43/34
f 17/58/49 53/59/50 76/60/51 58/61/52
f 53/59/50 10/62/53 43/63/54 76/60/51
f 76/60/51 43/63/54 11/64/47 54/65/44
f 58/61/52 76/60/51 54/65/44 18/66/43
f 20/51/42 37/50/41 77/67/55 57/68/56
f 37/50/41 9/49/40 44/69/57 77/67/55
f 77/67/55 44/69/57 10/70/53 53/71/50
f 57/68/56 77/67/55 53/71/50 17/72/49
f 12/47/38 40/73/58 78/74/59 41/48/39
f 40/73/58 16/29/21 49/31/23 78/74/59
f 78/74/59 49/31/23 13/1/1 45/75/60
f 41/48/39 78/74/59 45/75/60 9/49/40
f 11/56/47 39/76/61 79/77/62 42/57/48
f 39/76/61 15/20/15 50/23/17 79/77/62
f 79/77/62 50/23/17 16/29/21 40/73/58
f 42/57/48 79/77/62 40/73/58 12/47/38
f 10/62/53 38/78/63 80/79/64 43/63/54
f 38/78/63 14/13/9 51/15/11 80/79/64
f 80/79/64 51/15/11 15/19/15 39/80/61
f 43/63/54 80/79/64 39/80/61 11/64/47
f 9/49/40 45/75/60 81/81/65 44/69/57
f 45/75/60 13/1/1 52/4/4 81/81/65
f 81/81/65 52/4/4 14/12/9 38/82/63
f 44/69/57 81/81/65 38/82/63 10/70/53
f 24/83/66 56/84/67 82/85/68 68/86/69
f 56/84/67 20/51/42 57/68/56 82/85/68
f 82/85/68 57/68/56 17/72/49 61/87/70
f 68/86/69 82/85/68 61/87/70 21/88/71
f 21/89/71 61/90/70 83/91/72 67/92/73
f 61/90/70 17/58/49 58/61/52 83/91/72
f 83/91/72 58/61/52 18/66/43 62/93/74
f 67/92/73 83/91/72 62/93/74 22/94/75
f 22/95/75 62/96/74 84/97/76 66/98/77
f 62/96/74 18/52/43 59/55/46 84/97/76
f 84/97/76 59/55/46 19/43/34 63/99/78
f 66/98/77 84/97/76 63/99/78 23/100/79
f 23/100/79 63/99/78 85/101/80 65/102/81
f 63/99/78 19/43/34 60/46/37 85/101/80
f 85/101/80 60/46/37 20/51/42 56/84/67
f 65/102/81 85/101/80 56/84/67 24/83/66
f 5/40/31 34/103/82 86/104/83 35/41/32
f 34/105/82 23/100/79 65/102/81 86/106/83
f 86/106/83 65/102/81 24/83/66 64/107/84
f 35/41/32 86/104/83 64/108/84 1/42/33
f 7/38/29 31/109/85 87/110/86 32/39/30
f 31/111/85 22/95/75 66/98/77 87/112/86
f 87/112/86 66/98/77 23/100/79 34/105/82
f 32/39/30 87/110/86 34/103/82 5/40/31
f 3/34/25 28/113/87 88/114/88 29/35/26
f 28/113/87 21/89/71 67/92/73 88/114/88
f 88/114/88 67/92/73 22/94/75 31/109/85
f 29/35/26 88/114/88 31/109/85 7/38/29
f 1/42/33 64/108/84 89/115/89 25/37/28
f 64/107/84 24/83/66 68/86/69 89/116/89
f 89/116/89 68/86/69 21/88/71 28/117/87
f 25/37/28 89/115/89 28/113/87 3/34/25
f 2/6/5 30/16/12 4/9/7 27/7/6
f 6/26/19 30/16/12 2/6/5 36/32/24
f 30/16/12 6/26/19 33/24/18 8/17/13
