# Blender v2.82 (sub 7) OBJ File: 'chairBoulder.blend'
# www.blender.org
mtllib chairBoulder.mtl
o Icosphere_Icosphere.001
v -0.085484 -0.334925 0.533419
v 0.871384 0.033093 0.885467
v -0.542449 0.060199 1.614269
v -1.328641 -0.263018 0.372514
v -0.271991 -0.302254 -0.655000
v 0.715824 -0.278011 -0.188452
v 0.654185 0.494052 1.006002
v -0.733465 0.564608 0.965796
v -0.868738 0.116757 -0.394264
v 0.250950 0.037044 -0.644799
v 1.177161 0.216287 0.069499
v 0.194613 0.659849 0.139625
v -0.546527 -0.070068 1.353941
v 0.468904 -0.243153 1.200564
v 0.205131 0.011831 1.585565
v 0.945843 -0.263553 0.429522
v 0.442515 -0.355627 0.238882
v -0.880029 -0.346325 0.650286
v -0.841676 0.154213 1.368738
v -0.265522 -0.361049 -0.298497
v -0.921987 -0.299273 -0.343161
v 0.209762 -0.308430 -0.599253
v 1.220767 0.249529 0.293186
v 1.121838 0.012628 -0.167960
v -0.065874 0.418962 1.405530
v 0.930367 0.394738 0.824690
v -0.974383 0.237687 0.846328
v -0.637055 0.588368 1.288058
v -0.600657 -0.014771 -0.622943
v -1.198362 0.019719 -0.146183
v 0.555734 -0.032911 -0.582773
v 0.000000 -0.058431 -0.770000
v 1.063658 0.565983 0.383441
v -0.272368 0.601727 0.999151
v -0.962859 0.309736 0.212551
v -0.237571 0.140964 -0.622939
v 0.834065 0.164354 -0.283491
v 0.713952 0.581488 0.573303
v 0.852607 0.462348 0.215129
v -0.424724 0.545471 0.462672
v -0.555488 0.324770 -0.185571
v 0.236506 0.265966 -0.196112
vt 0.718219 0.261631
vt 0.521063 0.193413
vt 0.716994 0.052410
vt 0.253548 0.614448
vt 0.287248 0.538161
vt 0.365166 0.671686
vt 0.871992 0.157459
vt 0.856050 0.396819
vt 0.642065 0.371824
vt 0.263092 0.739440
vt 0.000000 0.760860
vt 0.001963 0.609089
vt 0.106355 0.667485
vt 0.064826 1.000000
vt 0.044791 0.834803
vt 0.121270 0.890324
vt 0.467969 0.653232
vt 0.467149 0.808080
vt 0.393807 0.720260
vt 0.621726 0.524606
vt 0.621726 0.627198
vt 0.555250 0.609169
vt 0.180144 0.658855
vt 0.149199 0.788840
vt 0.432660 0.492640
vt 0.270633 0.495333
vt 0.503259 0.408288
vt 0.410929 0.589237
vt 0.551653 0.503722
vt 0.000000 0.233450
vt 0.059996 0.085031
vt 0.071825 0.169999
vt 0.200264 0.471727
vt 0.127380 0.395711
vt 0.255019 0.354807
vt 0.500948 0.320807
vt 0.388818 0.415064
vt 0.407960 0.294379
vt 0.395088 0.092997
vt 0.455395 0.182244
vt 0.300901 0.154003
vt 0.119060 0.022190
vt 0.237839 0.037553
vt 0.126524 0.099782
vt 0.225735 0.207534
vt 0.181131 0.000000
vt 0.512853 0.534305
vt 0.343017 0.046697
vt 0.458552 0.120189
vt 0.365166 0.648227
vt 0.512853 0.243986
vt 0.123312 0.495333
vt 0.027051 0.408297
vt 0.000279 0.161476
vt 0.187220 0.756132
vt 0.294728 0.780187
vt 0.426406 0.495333
vt 0.399930 0.550111
vt 0.483065 0.562838
vt 0.394497 0.878722
vt 0.367296 0.792350
vt 0.483065 0.949100
vt 0.180144 0.827533
vt 0.180144 0.495333
vt 0.177107 0.540131
vt 0.195411 0.495333
vt 0.365166 0.807717
vt 0.512853 0.385905
vt 0.635568 0.476068
vt 0.547202 0.503722
vt 0.791732 0.499856
vt 0.900149 0.459485
vt 1.000000 0.334022
vt 1.000000 0.158464
vt 0.777416 0.010293
vt 0.684829 0.000000
vt 0.530432 0.085314
vn -0.0087 -0.9906 0.1363
vn 0.3691 -0.7801 0.5051
vn -0.2614 -0.8654 0.4276
vn 0.7925 -0.2543 0.5542
vn 0.6120 -0.7754 0.1557
vn -0.2146 -0.9336 0.2868
vn -0.0212 -0.9966 -0.0787
vn 0.0946 -0.9954 0.0164
vn 0.9940 0.0485 0.0979
vn -0.3001 -0.2702 0.9148
vn 0.2997 -0.1982 0.9332
vn 0.1724 0.7070 0.6859
vn -0.8997 -0.4251 0.0988
vn -0.7841 -0.0666 0.6170
vn -0.8569 0.4831 0.1798
vn -0.1484 -0.7129 -0.6854
vn -0.4930 -0.6909 -0.5287
vn -0.4038 0.1616 -0.9004
vn 0.3926 -0.8641 -0.3148
vn 0.2312 -0.7881 -0.5704
vn 0.4951 0.0140 -0.8687
vn 0.7431 0.3392 0.5768
vn -0.3524 0.8125 0.4643
vn -0.8613 0.2665 -0.4325
vn 0.0771 0.0952 -0.9925
vn 0.8314 -0.1696 -0.5290
vn 0.4367 0.5436 0.7167
vn 0.5297 0.8419 -0.1023
vn 0.1133 0.9926 0.0438
vn -0.5177 0.8552 0.0233
vn 0.0447 0.9937 0.1030
vn -0.1976 0.9685 -0.1514
vn -0.5072 0.5692 -0.6471
vn -0.5838 0.7997 -0.1401
vn -0.2092 0.8907 -0.4036
vn 0.2096 0.6796 -0.7030
vn -0.0615 0.7461 -0.6630
vn 0.1160 0.8116 -0.5725
vn 0.8081 0.4129 -0.4201
vn 0.3512 0.6855 -0.6377
vn 0.1815 0.8453 -0.5025
vn 0.0433 0.9440 -0.3271
usemtl Material
s 1
f 1/1/1 14/2/2 13/3/3
f 2/4/4 14/5/2 16/6/5
f 1/1/1 13/3/3 18/7/6
f 1/1/1 18/7/6 20/8/7
f 1/1/1 20/8/7 17/9/8
f 2/4/4 16/6/5 23/10/9
f 3/11/10 15/12/11 25/13/12
f 4/14/13 19/15/14 27/16/15
f 5/17/16 21/18/17 29/19/18
f 6/20/19 22/21/20 31/22/21
f 2/4/4 23/10/9 26/23/22
f 3/11/10 25/13/12 28/24/23
f 4/25/13 27/26/15 30/27/24
f 5/17/16 29/19/18 32/28/25
f 6/20/19 31/22/21 24/29/26
f 7/30/27 33/31/28 38/32/29
f 8/33/30 34/34/31 40/35/32
f 9/36/33 35/37/34 41/38/35
f 10/39/36 36/40/37 42/41/38
f 11/42/39 37/43/40 39/44/41
f 39/44/41 42/41/38 12/45/42
f 39/44/41 37/43/40 42/41/38
f 37/43/40 10/39/36 42/41/38
f 42/41/38 41/38/35 12/45/42
f 42/41/38 36/40/37 41/38/35
f 36/40/37 9/36/33 41/38/35
f 41/38/35 40/35/32 12/45/42
f 41/38/35 35/37/34 40/35/32
f 35/37/34 8/33/30 40/35/32
f 40/35/32 38/32/29 12/45/42
f 40/35/32 34/34/31 38/32/29
f 34/34/31 7/30/27 38/32/29
f 38/32/29 39/44/41 12/45/42
f 38/32/29 33/31/28 39/44/41
f 33/31/28 11/42/39 39/44/41
f 24/46/26 37/43/40 11/42/39
f 24/29/26 31/22/21 37/47/40
f 31/48/21 10/39/36 37/43/40
f 32/49/25 36/40/37 10/39/36
f 32/28/25 29/19/18 36/50/37
f 29/51/18 9/36/33 36/40/37
f 30/27/24 35/37/34 9/36/33
f 30/27/24 27/26/15 35/37/34
f 27/26/15 8/33/30 35/37/34
f 28/52/23 34/34/31 8/33/30
f 28/52/23 25/53/12 34/34/31
f 25/53/12 7/30/27 34/34/31
f 26/54/22 33/31/28 7/30/27
f 26/23/22 23/10/9 33/55/28
f 23/10/9 11/56/39 33/55/28
f 31/57/21 32/28/25 10/58/36
f 31/57/21 22/59/20 32/28/25
f 22/59/20 5/17/16 32/28/25
f 29/19/18 30/60/24 9/61/33
f 29/19/18 21/18/17 30/60/24
f 21/18/17 4/62/13 30/60/24
f 27/16/15 28/24/23 8/63/30
f 27/16/15 19/15/14 28/24/23
f 19/15/14 3/11/10 28/24/23
f 25/13/12 26/64/22 7/65/27
f 25/13/12 15/12/11 26/64/22
f 15/66/11 2/4/4 26/23/22
f 23/10/9 24/67/26 11/56/39
f 23/10/9 16/6/5 24/67/26
f 16/68/5 6/69/19 24/70/26
f 17/9/8 22/71/20 6/69/19
f 17/9/8 20/8/7 22/71/20
f 20/8/7 5/72/16 22/71/20
f 20/8/7 21/73/17 5/72/16
f 20/8/7 18/7/6 21/73/17
f 18/7/6 4/74/13 21/73/17
f 18/7/6 19/75/14 4/74/13
f 18/7/6 13/3/3 19/75/14
f 13/3/3 3/76/10 19/75/14
f 16/68/5 17/9/8 6/69/19
f 16/68/5 14/2/2 17/9/8
f 14/2/2 1/1/1 17/9/8
f 13/3/3 15/77/11 3/76/10
f 13/3/3 14/2/2 15/77/11
f 14/5/2 2/4/4 15/66/11
